<svg xmlns="http://www.w3.org/2000/svg" width="150" height="150" viewBox="0 0 150 150" fill="none">
  <defs>
    <linearGradient id="makaGrad" x1="0" y1="0" x2="1" y2="1">
      <stop offset="0" stop-color="#F2956A"></stop>
      <stop offset="1" stop-color="#E2685B"></stop>
    </linearGradient>
  </defs>
  <rect x="6" y="6" width="138" height="138" rx="40" fill="url(#makaGrad)"></rect>
  <path d="M44 40 H40 a8 8 0 0 0-8 8 v4" stroke="#fff" stroke-width="6" stroke-linecap="round"></path>
  <path d="M106 40 H110 a8 8 0 0 1 8 8 v4" stroke="#fff" stroke-width="6" stroke-linecap="round"></path>
  <path d="M44 110 H40 a8 8 0 0 1-8-8 v-4" stroke="#fff" stroke-width="6" stroke-linecap="round"></path>
  <path d="M106 110 H110 a8 8 0 0 0 8-8 v-4" stroke="#fff" stroke-width="6" stroke-linecap="round"></path>
  <circle cx="62" cy="68" r="6" fill="#fff"></circle>
  <circle cx="88" cy="68" r="6" fill="#fff"></circle>
  <path d="M60 88 q15 14 30 0" stroke="#fff" stroke-width="6" stroke-linecap="round" fill="none"></path>
</svg>